<svg xmlns="http://www.w3.org/2000/svg" viewBox="0 -1024 1024 1024"><path transform="scale(1,-1)" d="M947 557 589 915Q571 933 544.0 933.0Q517 933 499 915L439 855L503 790Q523 800 544 800Q584 800 612.0 772.0Q640 744 640 704Q640 683 630 663L695 598Q723 611 752.5 606.0Q782 601 804 580Q822 562 828.5 537.0Q835 512 828.5 487.0Q822 462 804.0 444.0Q786 426 761.0 419.5Q736 413 711.0 419.5Q686 426 668 444Q647 466 642.0 495.5Q637 525 650 553L585 618Q581 615 576 614V410Q609 399 627.0 368.5Q645 338 639.0 303.5Q633 269 606.0 246.5Q579 224 544.0 224.0Q509 224 482.0 246.5Q455 269 449.0 303.5Q443 338 461.0 368.5Q479 399 512 410V614Q484 624 466.0 648.5Q448 673 448 704Q448 725 458 745L393 809L141 557Q123 539 123.0 512.0Q123 485 141 467L499 109Q517 91 544.0 91.0Q571 91 589 109L947 467Q965 485 965.0 512.0Q965 539 947 557Z" fill="#d4572b"/></svg>