<svg xmlns="http://www.w3.org/2000/svg" viewBox="0 -1024 1024 1024"><path transform="scale(1,-1)" d="M512 832Q582 832 640.5 823.5Q699 815 733.5 800.0Q768 785 768 768V640Q768 623 733.5 608.0Q699 593 640.5 584.5Q582 576 512.0 576.0Q442 576 383.5 584.5Q325 593 290.5 608.0Q256 623 256 640V768Q256 785 290.5 800.0Q325 815 383.5 823.5Q442 832 512 832ZM512 512Q582 512 640.5 520.5Q699 529 733.5 544.0Q768 559 768 576V448Q768 431 733.5 416.0Q699 401 640.5 392.5Q582 384 512.0 384.0Q442 384 383.5 392.5Q325 401 290.5 416.0Q256 431 256 448V576Q256 559 290.5 544.0Q325 529 383.5 520.5Q442 512 512 512ZM512 320Q582 320 640.5 328.5Q699 337 733.5 352.0Q768 367 768 384V256Q768 239 733.5 224.0Q699 209 640.5 200.5Q582 192 512.0 192.0Q442 192 383.5 200.5Q325 209 290.5 224.0Q256 239 256 256V384Q256 367 290.5 352.0Q325 337 383.5 328.5Q442 320 512 320Z" fill="#6851a2"/></svg>